<svg width="36" height="428" viewBox="0 0 36 428" fill="none" xmlns="http://www.w3.org/2000/svg">
<g style="mix-blend-mode:overlay" opacity="0.25">
<path d="M21.4374 428L12.7036 408.32L8.73373 408.32L0 428L3.52327 428L10.5698 411.651L10.8675 411.651L17.9141 428L21.4374 428Z" fill="white"/>
<path d="M14.1781 397.911L22.9119 417.591L26.8818 417.591L35.6155 397.911L32.0922 397.911L25.0457 414.26L24.748 414.26L17.7014 397.911L14.1781 397.911Z" fill="white"/>
<path d="M21.4374 397.297L12.7036 377.617L8.73373 377.617L0 397.297L3.52327 397.297L10.5698 380.948L10.8675 380.948L17.9141 397.297L21.4374 397.297Z" fill="white"/>
<path d="M14.1781 367.208L22.9119 386.888L26.8818 386.888L35.6155 367.208L32.0922 367.208L25.0457 383.557L24.748 383.557L17.7014 367.208L14.1781 367.208Z" fill="white"/>
<path d="M14.1781 336.505L22.9119 356.185L26.8817 356.185L35.6155 336.505L32.0922 336.505L25.0457 352.854L24.7479 352.854L17.7014 336.505L14.1781 336.505Z" fill="white"/>
<path d="M21.4373 366.594L12.7036 346.914L8.73372 346.914L-1.77583e-05 366.594L3.52325 366.594L10.5698 350.245L10.8675 350.245L17.9141 366.594L21.4373 366.594Z" fill="white"/>
<path d="M14.1781 305.802L22.9119 325.482L26.8817 325.482L35.6155 305.802L32.0922 305.802L25.0457 322.151L24.7479 322.151L17.7014 305.802L14.1781 305.802Z" fill="white"/>
<path d="M21.4373 335.891L12.7036 316.211L8.73372 316.211L-1.77583e-05 335.891L3.52325 335.891L10.5698 319.542L10.8675 319.542L17.9141 335.891L21.4373 335.891Z" fill="white"/>
<path d="M21.4374 305.188L12.7036 285.508L8.73373 285.508L0 305.188L3.52327 305.188L10.5698 288.839L10.8675 288.839L17.9141 305.188L21.4374 305.188Z" fill="white"/>
<path d="M14.1781 275.099L22.9119 294.779L26.8818 294.779L35.6155 275.099L32.0922 275.099L25.0457 291.448L24.748 291.448L17.7014 275.099L14.1781 275.099Z" fill="white"/>
<path d="M21.4374 274.485L12.7036 254.805L8.73373 254.805L0 274.485L3.52327 274.485L10.5698 258.136L10.8675 258.136L17.9141 274.485L21.4374 274.485Z" fill="white"/>
<path d="M14.1781 244.396L22.9119 264.076L26.8818 264.076L35.6155 244.396L32.0922 244.396L25.0457 260.745L24.748 260.745L17.7014 244.396L14.1781 244.396Z" fill="white"/>
<path d="M14.1781 214.307L22.9119 233.585L26.8817 233.585L35.6155 214.307L32.0922 214.307L25.0457 230.323L24.7479 230.323L17.7014 214.307L14.1781 214.307Z" fill="white"/>
<path d="M21.4373 243.782L12.7036 224.504L8.73372 224.504L-1.77851e-05 243.782L3.52325 243.782L10.5698 227.766L10.8675 227.766L17.9141 243.782L21.4373 243.782Z" fill="white"/>
<path d="M14.1781 184.218L22.9119 203.496L26.8817 203.496L35.6155 184.218L32.0922 184.218L25.0457 200.234L24.7479 200.234L17.7014 184.218L14.1781 184.218Z" fill="white"/>
<path d="M21.4373 213.693L12.7036 194.415L8.73372 194.415L-1.77851e-05 213.693L3.52325 213.693L10.5698 197.677L10.8675 197.677L17.9141 213.693L21.4373 213.693Z" fill="white"/>
<path d="M14.1781 153.515L22.9119 173.195L26.8817 173.195L35.6155 153.515L32.0922 153.515L25.0457 169.864L24.7479 169.864L17.7014 153.515L14.1781 153.515Z" fill="white"/>
<path d="M21.4373 183.604L12.7036 163.924L8.73372 163.924L-1.77583e-05 183.604L3.52325 183.604L10.5698 167.255L10.8675 167.255L17.9141 183.604L21.4373 183.604Z" fill="white"/>
<path d="M14.1781 122.812L22.9119 142.492L26.8817 142.492L35.6155 122.812L32.0922 122.812L25.0457 139.161L24.7479 139.161L17.7014 122.812L14.1781 122.812Z" fill="white"/>
<path d="M21.4373 152.901L12.7036 133.221L8.73372 133.221L-1.77583e-05 152.901L3.52325 152.901L10.5698 136.552L10.8675 136.552L17.9141 152.901L21.4373 152.901Z" fill="white"/>
<path d="M14.1781 92.1091L22.9119 111.789L26.8817 111.789L35.6155 92.1091L32.0922 92.1091L25.0457 108.458L24.7479 108.458L17.7014 92.1091L14.1781 92.1091Z" fill="white"/>
<path d="M21.4373 122.198L12.7036 102.518L8.73372 102.518L-1.77583e-05 122.198L3.52325 122.198L10.5698 105.849L10.8675 105.849L17.9141 122.198L21.4373 122.198Z" fill="white"/>
<path d="M14.1781 61.4061L22.9119 81.0857L26.8817 81.0857L35.6155 61.4061L32.0922 61.4061L25.0457 77.7553L24.7479 77.7553L17.7014 61.4061L14.1781 61.4061Z" fill="white"/>
<path d="M21.4373 91.495L12.7036 71.8154L8.73372 71.8154L-1.77583e-05 91.495L3.52325 91.495L10.5698 75.1458L10.8675 75.1458L17.9141 91.495L21.4373 91.495Z" fill="white"/>
<path d="M14.1781 30.7031L22.9119 50.3827L26.8817 50.3827L35.6155 30.7031L32.0922 30.7031L25.0457 47.0523L24.7479 47.0523L17.7014 30.7031L14.1781 30.7031Z" fill="white"/>
<path d="M21.4373 60.792L12.7036 41.1124L8.73372 41.1124L-1.77583e-05 60.792L3.52325 60.792L10.5698 44.4428L10.8675 44.4428L17.9141 60.792L21.4373 60.792Z" fill="white"/>
<path d="M14.1781 6.19722e-05L22.9119 19.6797L26.8817 19.6797L35.6155 6.10352e-05L32.0922 6.11892e-05L25.0457 16.3493L24.7479 16.3493L17.7014 6.18182e-05L14.1781 6.19722e-05Z" fill="white"/>
<path d="M21.4373 30.089L12.7036 10.4094L8.73372 10.4094L-1.77583e-05 30.089L3.52325 30.089L10.5698 13.7398L10.8675 13.7398L17.9141 30.089L21.4373 30.089Z" fill="white"/>
</g>
</svg>
